<?xml version="1.0" encoding="UTF-8"?>
<svg version="1.1" xmlns="http://www.w3.org/2000/svg" width="800" height="600">
<path d="M0 0 C264 0 528 0 800 0 C800 198 800 396 800 600 C536 600 272 600 0 600 C0 402 0 204 0 0 Z " fill="#000000" transform="translate(0,0)"/>
<path d="M0 0 C1.02073608 -0.0065712 2.04147217 -0.0131424 3.09313965 -0.01991272 C6.44230236 -0.03948779 9.79142072 -0.05126875 13.140625 -0.0612793 C14.2905896 -0.06535482 15.4405542 -0.06943035 16.62536621 -0.07362938 C22.70466935 -0.09441613 28.78395037 -0.10875337 34.86328125 -0.11816406 C41.12758032 -0.12925294 47.39152661 -0.16370295 53.65570068 -0.20333576 C58.48910166 -0.22950538 63.3224182 -0.23785591 68.15588379 -0.24144554 C70.46507162 -0.24630531 72.77425584 -0.25790177 75.08337402 -0.27648354 C78.31628425 -0.30089663 81.54827534 -0.2999064 84.78125 -0.29296875 C85.7259314 -0.30577881 86.67061279 -0.31858887 87.6439209 -0.33178711 C95.11707203 -0.27356408 100.73292388 1.76827195 106.953125 5.86450195 C109.19587439 9.47240315 108.82472672 13.08567624 108.390625 17.17700195 C107.36537422 21.45106259 105.99413235 25.58075531 104.578125 29.73950195 C104.22169922 30.82424805 103.86527344 31.90899414 103.49804688 33.02661133 C101.97911947 37.61683781 100.4138277 42.18189458 98.703125 46.7043457 C97.39199567 50.17337539 96.35913384 53.60096931 95.390625 57.17700195 C92.43700563 55.8131308 90.04717993 54.23502618 87.53515625 52.1730957 C86.83068359 51.5975293 86.12621094 51.02196289 85.40039062 50.42895508 C84.67529297 49.83018555 83.95019531 49.23141602 83.203125 48.61450195 C82.46642578 48.01186523 81.72972656 47.40922852 80.97070312 46.78833008 C75.59809471 42.38447166 75.59809471 42.38447166 74.390625 41.17700195 C72.67197091 41.08341006 70.94946756 41.05955584 69.22827148 41.06347656 C67.57667274 41.06358986 67.57667274 41.06358986 65.89170837 41.06370544 C64.09486351 41.07144737 64.09486351 41.07144737 62.26171875 41.0793457 C61.04235123 41.08076065 59.8229837 41.0821756 58.56666565 41.08363342 C54.6537943 41.08925228 50.74097919 41.10180799 46.828125 41.11450195 C44.18294353 41.11951452 41.53776117 41.12407785 38.89257812 41.12817383 C32.39190774 41.13922784 25.89127039 41.15598432 19.390625 41.17700195 C20.217901 41.50943405 21.045177 41.84186615 21.89752197 42.18437195 C22.98095886 42.62626358 24.06439575 43.06815521 25.18066406 43.5234375 C26.25544006 43.9589946 27.33021606 44.3945517 28.43756104 44.8433075 C32.07771367 46.48731232 34.30820866 48.1987388 37.140625 50.98950195 C37.96046875 51.77969727 38.7803125 52.56989258 39.625 53.3840332 C40.20765625 53.97571289 40.7903125 54.56739258 41.390625 55.17700195 C39.73133482 63.8736346 36.85061144 72.12454059 34.015625 80.48950195 C33.48322638 82.07209832 32.95133435 83.65486519 32.41992188 85.23779297 C31.31096661 88.53951167 30.19982408 91.84048141 29.08691406 95.14086914 C26.59924683 102.52160435 24.13010521 109.90851455 21.66473389 117.29672241 C20.9117074 119.55137859 20.156442 121.80527486 19.40087891 124.05908203 C18.92862703 125.47205855 18.45645513 126.8850618 17.984375 128.2980957 C17.37625977 130.11458618 17.37625977 130.11458618 16.75585938 131.96777344 C14.87745746 137.67561392 13.14550597 143.43028605 11.390625 149.17700195 C12.99103638 149.16367828 12.99103638 149.16367828 14.6237793 149.15008545 C24.74344223 149.06853484 34.86303736 149.00881546 44.98295593 148.96975327 C50.18409054 148.94899498 55.3849571 148.92089564 60.5859375 148.87524414 C65.6175088 148.83136263 70.64882442 148.80777677 75.68057251 148.79749298 C77.58765683 148.79017674 79.49472926 148.77589311 81.40170288 148.75408173 C110.18211841 148.43838623 134.69603653 157.92582619 155.578125 178.05200195 C175.37544428 198.40525219 181.97157416 222.91847191 181.671875 250.6184082 C180.94356908 276.08362457 167.16919046 298.18979339 149.39453125 315.54418945 C131.80659861 330.95936058 110.06892694 338.31084284 86.87890625 338.33813477 C85.34561172 338.34558212 85.34561172 338.34558212 83.78134155 338.35317993 C80.42192904 338.36770756 77.06256367 338.37458609 73.703125 338.38012695 C71.35717773 338.38588401 69.01123047 338.39164167 66.6652832 338.3973999 C61.75634544 338.40788163 56.84742393 338.41374349 51.93847656 338.41723633 C45.65729989 338.42272989 39.376339 338.44678845 33.0952301 338.47520828 C28.25328953 338.49385088 23.41140092 338.49904103 18.56942749 338.5005722 C16.25384332 338.50359311 13.93825995 338.5116026 11.62271118 338.52475739 C8.38242185 338.54185934 5.14266021 338.53992783 1.90234375 338.53344727 C0.95249603 338.54266205 0.00264832 338.55187683 -0.97598267 338.56137085 C-7.23504367 338.52226365 -13.07134888 337.92549098 -18.20503235 333.93742752 C-20.84580149 331.21470373 -21.59697281 329.32494811 -21.91210938 325.56567383 C-21.77833944 320.63255467 -20.34800251 316.28483716 -18.765625 311.64575195 C-18.47707642 310.76922974 -18.18852783 309.89270752 -17.89123535 308.98962402 C-16.97500961 306.21493526 -16.04250603 303.4460454 -15.109375 300.67700195 C-14.48198595 298.78673738 -13.85567271 296.89611537 -13.23046875 295.00512695 C-11.70251637 290.39152463 -10.15995021 285.7830478 -8.609375 281.17700195 C-5.58077955 282.51579402 -3.70136233 283.94370177 -1.50415039 286.40405273 C5.76561506 293.86353357 11.85527646 297.94248097 22.45742798 298.5145874 C28.63737761 298.56505891 34.78131582 298.34766225 40.953125 298.05200195 C43.52521931 297.98163135 46.09750059 297.91777877 48.66992188 297.8605957 C54.91429976 297.70778328 61.15156776 297.47481428 67.390625 297.17700195 C66.71950684 296.92305664 66.04838867 296.66911133 65.35693359 296.4074707 C64.46828613 296.06329102 63.57963867 295.71911133 62.6640625 295.36450195 C61.78669434 295.02805664 60.90932617 294.69161133 60.00537109 294.3449707 C55.97574489 292.54499575 52.74103117 290.01136855 49.390625 287.17700195 C48.545 286.51700195 47.699375 285.85700195 46.828125 285.17700195 C45.390625 283.17700195 45.390625 283.17700195 45.62963867 280.59741211 C46.55204732 276.45145603 47.79639843 272.48036353 49.12890625 268.45043945 C49.40592377 267.60139038 49.68294128 266.75234131 49.96835327 265.87756348 C50.87563429 263.1009444 51.78923816 260.32645312 52.703125 257.55200195 C53.33401193 255.62647246 53.96462431 253.700853 54.5949707 251.77514648 C60.05902408 235.10351978 65.59595657 218.45597004 71.1706543 201.82104492 C72.58122998 197.60766638 73.98646483 193.39252203 75.390625 189.17700195 C74.35460648 189.18144318 73.31858795 189.1858844 72.25117493 189.19046021 C62.43956999 189.23118109 52.62798242 189.26106973 42.81631184 189.2806263 C37.77325707 189.29101882 32.73027107 189.3050943 27.68725586 189.32788086 C22.81133037 189.34977204 17.93547062 189.36160456 13.05949974 189.36675644 C11.20857904 189.3704232 9.35766153 189.37758256 7.50676918 189.38846207 C-23.04772834 189.56075374 -46.59814834 181.63036486 -68.859375 160.23950195 C-80.68635581 148.05808481 -88.52004274 132.5988994 -92.609375 116.17700195 C-92.83367187 115.34813477 -93.05796875 114.51926758 -93.2890625 113.6652832 C-98.93747024 89.02120285 -92.72602739 63.29229525 -79.609375 42.17700195 C-77.1554065 38.62646619 -74.49519136 35.38456457 -71.609375 32.17700195 C-71.18027832 31.69875977 -70.75118164 31.22051758 -70.30908203 30.7277832 C-51.78052652 10.37449526 -27.38679297 0.07795269 0 0 Z " fill="#FDFDFD" transform="translate(356.609375,130.822998046875)"/>
<path d="M0 0 C20.46 0 40.92 0 62 0 C58.31482255 5.52776617 55.6365044 9.51159967 51.30712891 14.10595703 C42.10039231 24.16203381 38.72464722 35.71287633 34.9921875 48.60107422 C33.74558123 52.87155959 32.39879704 57.10589664 31.03857422 61.34130859 C30.45026247 63.17416224 29.86806572 65.0089957 29.29345703 66.84619141 C27.89438873 71.31468861 26.40148894 75.71806237 24.72753906 80.09106445 C23.53897201 83.20965699 22.43115358 86.35567641 21.3125 89.5 C20.87550781 90.7271875 20.43851563 91.954375 19.98828125 93.21875 C19.49908203 94.59546875 19.49908203 94.59546875 19 96 C17.7625 95.71125 16.525 95.4225 15.25 95.125 C9.53870489 93.84975069 3.77761039 92.91894311 -2 92 C-1.32195312 92.40089844 -0.64390625 92.80179687 0.0546875 93.21484375 C7.08609908 97.50965332 13.05943001 102.30819759 19 108 C19.67675781 108.61359375 20.35351562 109.2271875 21.05078125 109.859375 C41.99231695 129.49993353 55.0216039 161.82351031 56.08154297 190.18164062 C56.15918614 194.45680768 56.1105508 198.72536908 56 203 C55.34 203.33 54.68 203.66 54 204 C53.82460693 203.43716309 53.64921387 202.87432617 53.46850586 202.29443359 C44.46782477 173.68002342 31.82077507 149.82998256 4.375 135.375 C-9.86141666 128.37875173 -24.35823752 125.8320209 -40 124 C-39.41841602 118.91676771 -38.27069292 114.34048383 -36.55078125 109.515625 C-36.30188141 108.79956085 -36.05298157 108.0834967 -35.79653931 107.34573364 C-35.25686089 105.79379298 -34.71455309 104.24276468 -34.16989136 102.69256592 C-32.67843517 98.44365436 -31.21008249 94.18678597 -29.7421875 89.9296875 C-29.43439865 89.03774689 -29.1266098 88.14580627 -28.80949402 87.22683716 C-25.40088791 77.31456652 -22.16293918 67.34807281 -18.9375 57.375 C-17.77795311 53.79277115 -16.61784595 50.21072448 -15.45703125 46.62890625 C-15.17246567 45.75078781 -14.88790009 44.87266937 -14.5947113 43.96794128 C-9.82692268 29.27980265 -4.90126056 14.6440102 0 0 Z " fill="#FBFBFB" transform="translate(495,131)"/>
<path d="M0 0 C1.91461059 2.87191589 2.44103432 4.41607658 3.1875 7.6875 C7.48464329 24.01232575 15.95913559 39.31522419 27 52 C27.50660156 52.60199219 28.01320313 53.20398438 28.53515625 53.82421875 C45.41417099 72.34364925 71.02913679 78.77015226 95 81 C93.34071868 89.69658622 90.46015681 97.94763778 87.625 106.3125 C87.08675483 107.91194633 86.54900394 109.51155906 86.01171875 111.11132812 C84.89676433 114.42984511 83.77970148 117.74764101 82.66113281 121.06494141 C80.3359536 127.96594756 78.03670395 134.87556793 75.73718262 141.78515625 C74.50540788 145.48598767 73.27232255 149.18638207 72.0390625 152.88671875 C71.67083374 153.99169205 71.67083374 153.99169205 71.29516602 155.11898804 C69.69760836 159.91146631 68.09659331 164.70277886 66.49359131 169.49343872 C65.38639883 172.80274245 64.28031513 176.11241629 63.17431641 179.42211914 C62.64752685 180.99749988 62.12019599 182.57269973 61.59228516 184.14770508 C60.85962415 186.33368882 60.12884338 188.52029315 59.3984375 190.70703125 C58.98255371 191.9494458 58.56666992 193.19186035 58.13818359 194.47192383 C57.01387168 197.95700136 56.00601372 201.47895199 55 205 C34.54 205 14.08 205 -7 205 C-4.9813291 201.63554849 -3.1481838 198.77574591 -0.75 195.75 C-0.1415625 194.9765625 0.466875 194.203125 1.09375 193.40625 C2.36458333 191.80208333 3.63541667 190.19791667 4.90625 188.59375 C10.14020454 181.94041795 13.48665348 176.11067478 16.0625 168.0625 C16.67533356 166.18474966 17.28864411 164.30715496 17.90234375 162.4296875 C18.40096924 160.89586426 18.40096924 160.89586426 18.90966797 159.33105469 C20.09228214 155.71807041 21.29509591 152.11209017 22.50390625 148.5078125 C22.718797 147.86649384 22.93368774 147.22517517 23.15509033 146.56442261 C24.03004065 143.95339181 24.90513004 141.34240874 25.78155518 138.73187256 C28.81846252 129.68081199 28.81846252 129.68081199 31.64453125 120.5625 C31.87060059 119.80364502 32.09666992 119.04479004 32.32958984 118.26293945 C32.8870163 116.35985418 33.42681823 114.45162963 33.96484375 112.54296875 C34.47724609 111.28419922 34.47724609 111.28419922 35 110 C38.38011294 108.87329569 39.50457306 109.15568179 42.88671875 109.99609375 C44.2934082 110.33930664 44.2934082 110.33930664 45.72851562 110.68945312 C46.70498047 110.93630859 47.68144531 111.18316406 48.6875 111.4375 C49.67556641 111.68048828 50.66363281 111.92347656 51.68164062 112.17382812 C54.12298445 112.77531863 56.56220809 113.38430006 59 114 C58.27296875 113.62230469 57.5459375 113.24460937 56.796875 112.85546875 C48.3330364 108.22205967 41.86315042 102.70284326 35 96 C34.35417969 95.41605469 33.70835937 94.83210938 33.04296875 94.23046875 C12.4536263 75.18412152 0.44467275 43.15491111 -1.13623047 15.62792969 C-1.55950418 3.11900837 -1.55950418 3.11900837 0 0 Z " fill="#FCFCFC" transform="translate(250,264)"/>
<path d="M0 0 C10.21049494 4.89809135 14.84138068 16.17333266 18.8828125 26.1875 C23.08062008 39.9042797 19.33979063 55.62151699 13 68 C10.89655516 71.23297965 8.56117354 74.12077223 6 77 C5.50113281 77.60328125 5.00226563 78.2065625 4.48828125 78.828125 C-3.86190069 88.16686753 -15.80429822 93.27062427 -28 95 C-28.99 95 -29.98 95 -31 95 C-29.59494906 88.20428334 -27.75118047 81.6655734 -25.625 75.0625 C-25.33367187 74.13759766 -25.04234375 73.21269531 -24.7421875 72.25976562 C-23.3368257 67.86184613 -21.83312144 63.55914355 -20.09130859 59.28271484 C-18.06382022 54.25432073 -16.33726277 49.16668646 -14.6875 44.00390625 C-14.24410278 42.63261818 -14.24410278 42.63261818 -13.79174805 41.23362732 C-12.85789451 38.34429445 -11.92857743 35.4535324 -11 32.5625 C-9.77335072 28.7504859 -8.54443207 24.93921646 -7.3125 21.12890625 C-7.02133301 20.22830475 -6.73016602 19.32770325 -6.43017578 18.39981079 C-4.42007159 12.21420471 -2.3191089 6.07775784 0 0 Z " fill="#030303" transform="translate(478,334)"/>
<path d="M0 0 C-0.75537709 4.4889572 -2.15806443 8.7135679 -3.6171875 13.01171875 C-3.87501007 13.77998489 -4.13283264 14.54825104 -4.39846802 15.33979797 C-5.22111856 17.79000495 -6.04776537 20.23883727 -6.875 22.6875 C-7.95777627 25.89905406 -9.03863392 29.11124407 -10.1171875 32.32421875 C-10.37836365 33.10220322 -10.63953979 33.88018768 -10.90863037 34.68174744 C-12.41679643 39.19450196 -13.83666933 43.72086766 -15.17236328 48.2878418 C-17.29968162 55.25904518 -19.68424243 62.15215123 -22 69.0625 C-22.53920387 70.67508294 -23.07826733 72.28771285 -23.6171875 73.90039062 C-24.63595233 76.9483365 -25.65545822 79.99603243 -26.67578125 83.04345703 C-28.12121627 87.3609653 -29.56170112 91.68010927 -31 96 C-42.21340422 87.30389061 -49.18136841 75.16714009 -51 61 C-52.36964687 44.27074177 -47.72120128 30.67085107 -37.04296875 17.60546875 C-27.80646274 7.54641675 -13.94031336 -0.39758469 0 0 Z " fill="#030303" transform="translate(353,171)"/>
<path d="M0 0 C0.66 0 1.32 0 2 0 C2.33 1.98 2.66 3.96 3 6 C4.32 6.33 5.64 6.66 7 7 C7.28875 6.21625 7.5775 5.4325 7.875 4.625 C9 2 9 2 11 0 C13.68839385 -0.26991906 16.29141936 -0.08737357 19 0 C19 2.31 19 4.62 19 7 C19.66 7 20.32 7 21 7 C20.67 7.99 20.34 8.98 20 10 C18.68 10 17.36 10 16 10 C16 8.68 16 7.36 16 6 C14.35 6 12.7 6 11 6 C11 7.32 11 8.64 11 10 C3.62468514 10.3627204 3.62468514 10.3627204 1.0625 8.875 C-0.4031203 6.28861123 -0.74420092 3.9416894 -1 1 C-0.67 0.67 -0.34 0.34 0 0 Z " fill="#CACACA" transform="translate(57,26)"/>
<path d="M0 0 C2.12472576 -0.05386629 4.24983652 -0.09273071 6.375 -0.125 C7.55835937 -0.14820312 8.74171875 -0.17140625 9.9609375 -0.1953125 C13 0 13 0 15 2 C15.26991906 4.68839385 15.08737357 7.29141936 15 10 C14.34 10 13.68 10 13 10 C12.34 7.69 11.68 5.38 11 3 C10.67 5.31 10.34 7.62 10 10 C9.01 10 8.02 10 7 10 C7 7.36 7 4.72 7 2 C6.34 2 5.68 2 5 2 C5 4.64 5 7.28 5 10 C3.68 9.67 2.36 9.34 1 9 C1.020625 7.88625 1.04125 6.7725 1.0625 5.625 C1.26380718 2.16784079 1.26380718 2.16784079 0 0 Z " fill="#D1D0D1" transform="translate(77,26)"/>
<path d="M0 0 C1.21236328 0.02707031 1.21236328 0.02707031 2.44921875 0.0546875 C3.37154297 0.08949219 3.37154297 0.08949219 4.3125 0.125 C3.6525 2.765 2.9925 5.405 2.3125 8.125 C2.9725 8.455 3.6325 8.785 4.3125 9.125 C2.9925 9.455 1.6725 9.785 0.3125 10.125 C0.3125 8.805 0.3125 7.485 0.3125 6.125 C-1.6675 6.125 -3.6475 6.125 -5.6875 6.125 C-5.6875 7.445 -5.6875 8.765 -5.6875 10.125 C-6.3475 10.125 -7.0075 10.125 -7.6875 10.125 C-7.98046875 4.0703125 -7.98046875 4.0703125 -7.6875 2.125 C-4.48369983 -0.01086678 -3.66810033 -0.10632175 0 0 Z " fill="#F9F9F9" transform="translate(38.6875,25.875)"/>
<path d="M0 0 C1.23556641 0.01740234 1.23556641 0.01740234 2.49609375 0.03515625 C3.32238281 0.04417969 4.14867187 0.05320312 5 0.0625 C5.63808594 0.07410156 6.27617188 0.08570312 6.93359375 0.09765625 C6.93359375 0.75765625 6.93359375 1.41765625 6.93359375 2.09765625 C4.29359375 2.09765625 1.65359375 2.09765625 -1.06640625 2.09765625 C-1.06640625 2.75765625 -1.06640625 3.41765625 -1.06640625 4.09765625 C1.24359375 4.09765625 3.55359375 4.09765625 5.93359375 4.09765625 C5.36014438 6.96490311 5.07214225 7.95910775 2.93359375 10.09765625 C-0.69140625 10.22265625 -0.69140625 10.22265625 -4.06640625 10.09765625 C-4.06640625 9.43765625 -4.06640625 8.77765625 -4.06640625 8.09765625 C-2.08640625 7.76765625 -0.10640625 7.43765625 1.93359375 7.09765625 C-1.03640625 6.60265625 -1.03640625 6.60265625 -4.06640625 6.09765625 C-2.99738005 0.14165312 -2.99738005 0.14165312 0 0 Z " fill="#EAEAEA" transform="translate(48.06640625,25.90234375)"/>
<path d="M0 0 C0.33 0 0.66 0 1 0 C1 2.31 1 4.62 1 7 C1.66 7 2.32 7 3 7 C2.67 7.99 2.34 8.98 2 10 C0.68 10 -0.64 10 -2 10 C-2 8.68 -2 7.36 -2 6 C-3.65 6 -5.3 6 -7 6 C-6.67 4.68 -6.34 3.36 -6 2 C-4.35 2 -2.7 2 -1 2 C-0.67 1.34 -0.34 0.68 0 0 Z " fill="#B1B1B1" transform="translate(75,26)"/>
<path d="M0 0 C2.31 0 4.62 0 7 0 C7 1.98 7 3.96 7 6 C4.69 6 2.38 6 0 6 C0 4.02 0 2.04 0 0 Z " fill="#EBEBEB" transform="translate(219,565)"/>
<path d="M0 0 C2.31 0 4.62 0 7 0 C7 1.98 7 3.96 7 6 C4.69 6 2.38 6 0 6 C0 4.02 0 2.04 0 0 Z " fill="#EBEBEB" transform="translate(578,565)"/>
<path d="M0 0 C2.31 0 4.62 0 7 0 C7 1.98 7 3.96 7 6 C4.69 6 2.38 6 0 6 C0 4.02 0 2.04 0 0 Z " fill="#EBEBEB" transform="translate(736,31)"/>
<path d="M0 0 C2.31 0 4.62 0 7 0 C7 1.98 7 3.96 7 6 C4.69 6 2.38 6 0 6 C0 4.02 0 2.04 0 0 Z " fill="#EBEBEB" transform="translate(699,31)"/>
<path d="M0 0 C2.31 0 4.62 0 7 0 C7 1.98 7 3.96 7 6 C4.69 6 2.38 6 0 6 C0 4.02 0 2.04 0 0 Z " fill="#ECECEC" transform="translate(675,31)"/>
<path d="M0 0 C1.98 0 3.96 0 6 0 C6.38218767 1.65614657 6.71395102 3.32457024 7 5 C6 6 6 6 2.9375 6.0625 C1.4834375 6.0315625 1.4834375 6.0315625 0 6 C0 4.02 0 2.04 0 0 Z " fill="#818181" transform="translate(560,565)"/>
<path d="M0 0 C1.98 0 3.96 0 6 0 C6.38218767 1.65614657 6.71395102 3.32457024 7 5 C6 6 6 6 2.9375 6.0625 C1.4834375 6.0315625 1.4834375 6.0315625 0 6 C0 4.02 0 2.04 0 0 Z " fill="#828282" transform="translate(421,565)"/>
<path d="M0 0 C1.98 0 3.96 0 6 0 C6.38218767 1.65614657 6.71395102 3.32457024 7 5 C6 6 6 6 2.9375 6.0625 C1.4834375 6.0315625 1.4834375 6.0315625 0 6 C0 4.02 0 2.04 0 0 Z " fill="#828282" transform="translate(514,565)"/>
<path d="M0 0 C2.33944736 0.28730055 4.6739143 0.61936779 7 1 C6.67 2.32 6.34 3.64 6 5 C4.35 5 2.7 5 1 5 C1 6.32 1 7.64 1 9 C0.34 9 -0.32 9 -1 9 C-1.09765625 2.84765625 -1.09765625 2.84765625 -1 1 C-0.67 0.67 -0.34 0.34 0 0 Z " fill="#BBBBBB" transform="translate(32,27)"/>
<path d="M0 0 C1.98 0 3.96 0 6 0 C6.33 1.65 6.66 3.3 7 5 C4 5 4 5 1 4 C0.67 4.66 0.34 5.32 0 6 C0 4.02 0 2.04 0 0 Z " fill="#A9A9A9" transform="translate(385,565)"/>
<path d="M0 0 C1.98 0 3.96 0 6 0 C6.33 1.65 6.66 3.3 7 5 C4 5 4 5 1 4 C0.67 4.66 0.34 5.32 0 6 C0 4.02 0 2.04 0 0 Z " fill="#A9A9A9" transform="translate(231,565)"/>
<path d="M0 0 C1.98 0 3.96 0 6 0 C6.33 1.65 6.66 3.3 7 5 C4 5 4 5 1 4 C0.67 4.66 0.34 5.32 0 6 C0 4.02 0 2.04 0 0 Z " fill="#AAAAAA" transform="translate(592,31)"/>
<path d="M0 0 C1.670625 0.061875 1.670625 0.061875 3.375 0.125 C3.045 1.115 2.715 2.105 2.375 3.125 C0.725 3.125 -0.925 3.125 -2.625 3.125 C-1.635 3.785 -0.645 4.445 0.375 5.125 C-0.24375 5.228125 -0.8625 5.33125 -1.5 5.4375 C-3.99026484 6.00025373 -3.99026484 6.00025373 -5.625 9.125 C-5.75 5.75 -5.75 5.75 -5.625 2.125 C-3.625 0.125 -3.625 0.125 0 0 Z " fill="#F8F8F8" transform="translate(71.625,25.875)"/>
<path d="M0 0 C1.98 0 3.96 0 6 0 C6 1.32 6 2.64 6 4 C4.35 4 2.7 4 1 4 C0.67 4.66 0.34 5.32 0 6 C0 4.02 0 2.04 0 0 Z " fill="#A6A6A6" transform="translate(581,31)"/>
<path d="M0 0 C0.99 0 1.98 0 3 0 C3.66 1.98 4.32 3.96 5 6 C2.36 6 -0.28 6 -3 6 C-2.01 4.02 -1.02 2.04 0 0 Z " fill="#BBBBBB" transform="translate(486,565)"/>
<path d="M0 0 C0.99 0 1.98 0 3 0 C3.66 1.98 4.32 3.96 5 6 C2.36 6 -0.28 6 -3 6 C-2.01 4.02 -1.02 2.04 0 0 Z " fill="#BCBCBC" transform="translate(399,565)"/>
<path d="M0 0 C0.99 0 1.98 0 3 0 C3.66 1.98 4.32 3.96 5 6 C2.36 6 -0.28 6 -3 6 C-2.01 4.02 -1.02 2.04 0 0 Z " fill="#BABABA" transform="translate(295,565)"/>
<path d="M0 0 C0.99 0 1.98 0 3 0 C3.66 1.98 4.32 3.96 5 6 C2.36 6 -0.28 6 -3 6 C-2.01 4.02 -1.02 2.04 0 0 Z " fill="#BCBCBC" transform="translate(259,565)"/>
<path d="M0 0 C0.99 0 1.98 0 3 0 C3.66 1.98 4.32 3.96 5 6 C2.36 6 -0.28 6 -3 6 C-2.01 4.02 -1.02 2.04 0 0 Z " fill="#BBBBBB" transform="translate(342,565)"/>
<path d="M0 0 C0.33 1.32 0.66 2.64 1 4 C3.97 4 6.94 4 10 4 C9.67 4.66 9.34 5.32 9 6 C7.02 6 5.04 6 3 6 C3 6.66 3 7.32 3 8 C1 7 1 7 0 6 C-0.04080783 4.00041636 -0.04254356 1.99954746 0 0 Z " fill="#343434" transform="translate(41,28)"/>
<path d="M0 0 C2 3 2 3 2 6 C1.34 6 0.68 6 0 6 C0 9.96 0 13.92 0 18 C-0.33 18 -0.66 18 -1 18 C-1.02690844 15.37493198 -1.04679404 12.75013827 -1.0625 10.125 C-1.07087891 9.37863281 -1.07925781 8.63226563 -1.08789062 7.86328125 C-1.11328125 2.2265625 -1.11328125 2.2265625 0 0 Z " fill="#A7A7A7" transform="translate(250,264)"/>
<path d="M0 0 C1.32 0.66 2.64 1.32 4 2 C4 2.99 4 3.98 4 5 C3.38125 5.144375 2.7625 5.28875 2.125 5.4375 C-0.03258322 5.93152225 -0.03258322 5.93152225 -2 7 C-1.34 4.69 -0.68 2.38 0 0 Z " fill="#0D0D0D" transform="translate(478,334)"/>
<path d="M0 0 C0.33 0.66 0.66 1.32 1 2 C2.32 2 3.64 2 5 2 C5 1.34 5 0.68 5 0 C5.66 0 6.32 0 7 0 C7 1.98 7 3.96 7 6 C6.34 6 5.68 6 5 6 C5 5.01 5 4.02 5 3 C3.68 3 2.36 3 1 3 C0.67 3.99 0.34 4.98 0 6 C0 4.02 0 2.04 0 0 Z " fill="#C5C5C5" transform="translate(496,565)"/>
<path d="M0 0 C0.99 0.33 1.98 0.66 3 1 C3 3.64 3 6.28 3 9 C2.34 9 1.68 9 1 9 C0.63877119 7.68942607 0.28619689 6.37646376 -0.0625 5.0625 C-0.35833984 3.96615234 -0.35833984 3.96615234 -0.66015625 2.84765625 C-0.77230469 2.23792969 -0.88445312 1.62820312 -1 1 C-0.67 0.67 -0.34 0.34 0 0 Z " fill="#E5E5E5" transform="translate(89,27)"/>
<path d="M0 0 C1.65 0 3.3 0 5 0 C5 1.32 5 2.64 5 4 C3.35 4 1.7 4 0 4 C0 2.68 0 1.36 0 0 Z " fill="#060606" transform="translate(579,566)"/>
<path d="M0 0 C1.65 0 3.3 0 5 0 C5 1.32 5 2.64 5 4 C3.35 4 1.7 4 0 4 C0 2.68 0 1.36 0 0 Z " fill="#050505" transform="translate(220,566)"/>
<path d="M0 0 C2.475 0.495 2.475 0.495 5 1 C4.67 2.32 4.34 3.64 4 5 C2.68 4.67 1.36 4.34 0 4 C0 2.68 0 1.36 0 0 Z " fill="#6A6A6A" transform="translate(78,39)"/>
<path d="M0 0 C1.65 0 3.3 0 5 0 C5 1.32 5 2.64 5 4 C3.35 4 1.7 4 0 4 C0 2.68 0 1.36 0 0 Z " fill="#070707" transform="translate(737,32)"/>
<path d="M0 0 C1.65 0 3.3 0 5 0 C5 1.32 5 2.64 5 4 C3.35 4 1.7 4 0 4 C0 2.68 0 1.36 0 0 Z " fill="#050505" transform="translate(700,32)"/>
<path d="M0 0 C1.65 0 3.3 0 5 0 C5 1.32 5 2.64 5 4 C3.35 4 1.7 4 0 4 C0 2.68 0 1.36 0 0 Z " fill="#050505" transform="translate(676,32)"/>
<path d="M0 0 C1.485 0.99 1.485 0.99 3 2 C3.1875 5.625 3.1875 5.625 3 9 C2.67 8.34 2.34 7.68 2 7 C1.34 7 0.68 7 0 7 C0 4.69 0 2.38 0 0 Z " fill="#070707" transform="translate(76,26)"/>
<path d="M0 0 C-0.33 0.99 -0.66 1.98 -1 3 C-3.31 3 -5.62 3 -8 3 C-8 2.34 -8 1.68 -8 1 C-2.25 0 -2.25 0 0 0 Z " fill="#DFDFDF" transform="translate(52,33)"/>
</svg>
